<svg version="1.1" id="Layer_1" xmlns="http://www.w3.org/2000/svg" xmlns:xlink="http://www.w3.org/1999/xlink" x="0px" y="0px"
	 width="100%" viewBox="0 0 500 500" enable-background="new 0 0 500 500" xml:space="preserve">
<path fill="#000000" opacity="1.000000" stroke="none" 
	d="
M267.000000,501.000000 
	C178.000015,501.000000 89.500046,501.000000 1.000047,501.000000 
	C1.000032,334.333405 1.000032,167.666794 1.000016,1.000137 
	C167.666565,1.000091 334.333130,1.000091 500.999756,1.000046 
	C500.999847,167.666519 500.999847,334.333038 500.999939,500.999786 
	C423.166656,501.000000 345.333344,501.000000 267.000000,501.000000 
M224.003555,342.995544 
	C224.003555,342.995544 224.015976,343.057159 224.656830,342.840729 
	C240.793701,326.702850 256.966400,310.600525 273.034302,294.394287 
	C275.912018,291.491791 278.656433,288.363373 280.946716,284.989258 
	C288.707275,273.556213 292.400635,261.110809 291.137939,247.039154 
	C290.046570,234.876816 286.013611,224.016479 277.726471,215.397537 
	C254.645187,191.392166 231.135178,167.797272 207.682922,144.150894 
	C188.091354,124.397163 168.376190,104.765472 148.626846,85.169350 
	C145.618973,82.184814 142.172287,79.632324 138.855347,76.971245 
	C125.813530,66.508163 110.111404,66.024628 95.170715,68.400688 
	C69.633545,72.461929 48.779243,97.023888 51.018024,123.930984 
	C51.011997,211.064835 50.965561,298.198700 51.045017,385.332489 
	C51.056484,397.908813 56.351505,408.671082 64.496887,417.886810 
	C73.625778,428.215302 85.056267,434.249695 98.993477,436.186157 
	C116.322762,438.593903 131.558563,434.383453 143.884628,422.408112 
	C168.975861,398.030975 193.461090,373.030182 218.218002,348.308350 
	C219.705704,346.822754 221.386780,345.530792 223.514313,343.951569 
	C223.698318,343.633972 223.882324,343.316406 224.003555,342.995544 
M319.036438,247.970825 
	C320.695892,267.985901 312.405273,283.554474 298.397736,297.281494 
	C268.894104,326.194305 239.879913,355.606689 210.678177,384.827423 
	C204.754059,390.755341 203.200150,397.665863 207.511108,404.692963 
	C210.532455,409.617920 214.460892,414.471375 219.088608,417.839264 
	C236.230789,430.314850 255.867050,435.217377 276.847595,433.860779 
	C287.891815,433.146729 298.138306,429.408813 306.261139,421.251373 
	C317.662170,409.801758 329.126404,398.415039 340.525818,386.963806 
	C355.088287,372.335144 369.613129,357.669037 384.771057,342.787659 
	C400.319641,327.236938 415.590912,311.395508 431.498810,296.221466 
	C445.926392,282.459381 452.694153,266.150177 451.004578,246.298569 
	C449.985962,234.330444 445.798889,223.468643 437.409180,215.011627 
	C393.522644,170.772858 349.481018,126.685387 305.122589,82.921074 
	C300.475708,78.336433 293.737183,74.912331 287.368500,73.248215 
	C276.739532,70.470909 265.679993,70.191620 254.579742,71.901894 
	C237.187683,74.581551 221.689896,80.622215 209.482590,93.885345 
	C202.209274,101.787727 202.119812,112.659683 209.748657,120.288666 
	C239.673798,150.214249 269.612244,180.126526 299.527191,210.062286 
	C309.837738,220.380005 317.098969,232.341400 319.036438,247.970825 
M397.084595,134.582397 
	C402.044067,136.054596 406.928009,138.413544 411.976257,138.843506 
	C432.418579,140.584625 451.850464,122.685837 451.420807,101.725571 
	C451.112122,86.665268 439.545197,70.752266 425.465210,66.682159 
	C409.810638,62.156876 393.299530,67.788910 383.956085,81.097809 
	C373.077850,96.592949 376.018097,123.342377 397.084595,134.582397 
z"/>
<path fill="#FFDF5D" opacity="1.000000" stroke="none" 
	d="
M222.977875,344.148743 
	C221.386780,345.530792 219.705704,346.822754 218.218002,348.308350 
	C193.461090,373.030182 168.975861,398.030975 143.884628,422.408112 
	C131.558563,434.383453 116.322762,438.593903 98.993477,436.186157 
	C85.056267,434.249695 73.625778,428.215302 64.496887,417.886810 
	C56.351505,408.671082 51.056484,397.908813 51.045017,385.332489 
	C50.965561,298.198700 51.011997,211.064835 51.366997,123.637100 
	C68.200027,139.764664 84.891838,155.984161 101.108170,172.665878 
	C116.509163,188.508865 131.487320,204.766235 146.517136,220.965942 
	C168.005905,244.127350 188.353241,268.260406 205.857834,294.598389 
	C215.585419,309.234833 225.803421,323.976562 224.015976,343.057159 
	C224.015976,343.057159 224.003555,342.995544 223.785065,343.114136 
	C223.370346,343.538086 223.174118,343.843414 222.977875,344.148743 
z"/>
<path fill="#DF5500" opacity="1.000000" stroke="none" 
	d="
M319.164001,247.048981 
	C317.098969,232.341400 309.837738,220.380005 299.527191,210.062286 
	C269.612244,180.126526 239.673798,150.214249 209.748657,120.288666 
	C202.119812,112.659683 202.209274,101.787727 209.482590,93.885345 
	C221.689896,80.622215 237.187683,74.581551 254.579742,71.901894 
	C265.679993,70.191620 276.739532,70.470909 287.368500,73.248215 
	C293.737183,74.912331 300.475708,78.336433 305.122589,82.921074 
	C349.481018,126.685387 393.522644,170.772858 437.409180,215.011627 
	C445.798889,223.468643 449.985962,234.330444 451.004578,246.298569 
	C452.694153,266.150177 445.926392,282.459381 431.498810,296.221466 
	C415.590912,311.395508 400.319641,327.236938 384.151886,342.717407 
	C382.349670,339.739685 381.498535,336.637787 379.928101,333.957306 
	C371.562469,319.678070 363.830170,304.930664 354.318909,291.445404 
	C343.455780,276.043427 330.953827,261.797333 319.164001,247.048981 
z"/>
<path fill="#FFAD30" opacity="1.000000" stroke="none" 
	d="
M224.336395,342.948944 
	C225.803421,323.976562 215.585419,309.234833 205.857834,294.598389 
	C188.353241,268.260406 168.005905,244.127350 146.517136,220.965942 
	C131.487320,204.766235 116.509163,188.508865 101.108170,172.665878 
	C84.891838,155.984161 68.200027,139.764664 51.438347,123.173500 
	C48.779243,97.023888 69.633545,72.461929 95.170715,68.400688 
	C110.111404,66.024628 125.813530,66.508163 138.855347,76.971245 
	C142.172287,79.632324 145.618973,82.184814 148.626846,85.169350 
	C168.376190,104.765472 188.091354,124.397163 207.682922,144.150894 
	C231.135178,167.797272 254.645187,191.392166 277.726471,215.397537 
	C286.013611,224.016479 290.046570,234.876816 291.137939,247.039154 
	C292.400635,261.110809 288.707275,273.556213 280.946716,284.989258 
	C278.656433,288.363373 275.912018,291.491791 273.034302,294.394287 
	C256.966400,310.600525 240.793701,326.702850 224.336395,342.948944 
z"/>
<path fill="#FF914D" opacity="1.000000" stroke="none" 
	d="
M319.100220,247.509903 
	C330.953827,261.797333 343.455780,276.043427 354.318909,291.445404 
	C363.830170,304.930664 371.562469,319.678070 379.928101,333.957306 
	C381.498535,336.637787 382.349670,339.739685 383.843445,342.833069 
	C369.613129,357.669037 355.088287,372.335144 340.525818,386.963806 
	C329.126404,398.415039 317.662170,409.801758 306.261139,421.251373 
	C298.138306,429.408813 287.891815,433.146729 276.847595,433.860779 
	C255.867050,435.217377 236.230789,430.314850 219.088608,417.839264 
	C214.460892,414.471375 210.532455,409.617920 207.511108,404.692963 
	C203.200150,397.665863 204.754059,390.755341 210.678177,384.827423 
	C239.879913,355.606689 268.894104,326.194305 298.397736,297.281494 
	C312.405273,283.554474 320.695892,267.985901 319.100220,247.509903 
z"/>
<path fill="#FF6100" opacity="1.000000" stroke="none" 
	d="
M396.790833,134.336243 
	C376.018097,123.342377 373.077850,96.592949 383.956085,81.097809 
	C393.299530,67.788910 409.810638,62.156876 425.465210,66.682159 
	C439.545197,70.752266 451.112122,86.665268 451.420807,101.725571 
	C451.850464,122.685837 432.418579,140.584625 411.976257,138.843506 
	C406.928009,138.413544 402.044067,136.054596 396.790833,134.336243 
z"/>
<path fill="#FFAD30" opacity="1.000000" stroke="none" 
	d="
M223.246094,344.050171 
	C223.174118,343.843414 223.370346,343.538086 223.816452,343.115784 
	C223.882324,343.316406 223.698318,343.633972 223.246094,344.050171 
z"/>
</svg>